<?xml version="1.0" encoding="UTF-8"?><svg id="Layer_1" xmlns="http://www.w3.org/2000/svg" viewBox="0 0 74.39 91.73"><defs><style>.cls-1{fill:#fff;}.cls-2{fill:#4b3feb;}</style></defs><g transform="matrix(1, 0, 0, 1, 0, 0)"><path id="Path_63-2" class="cls-2" d="M74.39,37.19c0,32.78-37.2,54.53-37.2,54.53-8.87-5.74-16.81-12.8-23.56-20.93C6.25,61.76,0,50.24,0,37.19,0,16.65,16.65,0,37.2,0s37.19,16.65,37.19,37.19"/></g><path id="Path_64" class="cls-1" d="M48.85,26.85c0,6.44-5.22,11.66-11.67,11.66-6.44,0-11.66-5.22-11.66-11.67,0-6.44,5.22-11.66,11.66-11.66,6.44,0,11.66,5.22,11.67,11.66h0"/></svg>