<svg id="Group_47" data-name="Group 47" xmlns="http://www.w3.org/2000/svg" xmlns:xlink="http://www.w3.org/1999/xlink" width="51.923" height="51.925" viewBox="0 0 51.923 51.925">
  <defs>
    <style>
      .cls-1 {
        fill: #fff;
      }

      .cls-2 {
        clip-path: url(#clip-path);
      }
    </style>
    <clipPath id="clip-path">
      <rect id="Rectangle_69" data-name="Rectangle 69" class="cls-1" width="51.923" height="51.925"/>
    </clipPath>
  </defs>
  <g id="Group_46" data-name="Group 46" class="cls-2">
    <path id="Path_75" data-name="Path 75" class="cls-1" d="M239.667,216.553l-6.107,6.106-2.4-2.4a1.854,1.854,0,0,0-2.622,2.622l3.709,3.709a1.853,1.853,0,0,0,2.622,0l7.418-7.418a1.854,1.854,0,1,0-2.622-2.622" transform="translate(-192.764 -182.629)"/>
    <path id="Path_76" data-name="Path 76" class="cls-1" d="M50.069,38.945A1.853,1.853,0,0,0,48.214,40.8,7.418,7.418,0,1,1,40.8,33.381a1.854,1.854,0,0,0,0-3.709,11.1,11.1,0,0,0-10.358,15.16l-4.477,2.238V21.637L44.505,13.91V29.673a1.854,1.854,0,1,0,3.709,0V11.129a1.845,1.845,0,0,0-.13-.645A1.621,1.621,0,0,0,48,10.3a1.876,1.876,0,0,0-.254-.378c-.045-.05-.084-.1-.133-.149a1.77,1.77,0,0,0-.488-.328c-.017-.008-.03-.021-.047-.028a0,0,0,0,1,0,0L24.821.145a1.832,1.832,0,0,0-1.428,0L1.14,9.417a0,0,0,0,0,0,0c-.016.007-.028.02-.045.028a1.833,1.833,0,0,0-.49.328c-.049.047-.089.1-.133.149a1.876,1.876,0,0,0-.254.378,1.621,1.621,0,0,0-.087.182,1.845,1.845,0,0,0-.13.645V38.945A1.855,1.855,0,0,0,1.026,40.6L23.278,51.73a1.858,1.858,0,0,0,1.658,0l7.414-3.706A11.116,11.116,0,0,0,51.923,40.8a1.853,1.853,0,0,0-1.854-1.854M24.107,3.865l17.431,7.264L24.107,18.392,6.676,11.129ZM3.709,13.91l18.544,7.727V47.071L3.709,37.8Z" transform="translate(0 0)"/>
  </g>
</svg>
