<svg id="Group_45" data-name="Group 45" xmlns="http://www.w3.org/2000/svg" xmlns:xlink="http://www.w3.org/1999/xlink" width="52" height="51.925" viewBox="0 0 52 51.925">
  <defs>
    <style>
      .cls-1 {
        fill: #fff;
      }

      .cls-2 {
        clip-path: url(#clip-path);
      }
    </style>
    <clipPath id="clip-path">
      <rect id="Rectangle_68" data-name="Rectangle 68" class="cls-1" width="52" height="51.925"/>
    </clipPath>
  </defs>
  <g id="Group_44" data-name="Group 44" class="cls-2">
    <path id="Path_69" data-name="Path 69" class="cls-1" d="M117.407,142.711a4.561,4.561,0,1,0,0,6.454,4.568,4.568,0,0,0,0-6.454m-2.151,4.3a1.521,1.521,0,1,1,0-2.151,1.523,1.523,0,0,1,0,2.151" transform="translate(-94.772 -122.232)"/>
    <path id="Path_70" data-name="Path 70" class="cls-1" d="M133.292,253.914a4.564,4.564,0,1,0,0,6.454,4.569,4.569,0,0,0,0-6.454m-2.151,4.3a1.521,1.521,0,1,1,0-2.151,1.523,1.523,0,0,1,0,2.151" transform="translate(-108.505 -218.376)"/>
    <path id="Path_71" data-name="Path 71" class="cls-1" d="M90.938,212.839a1.521,1.521,0,0,0-1.679-1.344L69.9,213.646a1.521,1.521,0,1,0,.336,3.024l19.361-2.151a1.521,1.521,0,0,0,1.344-1.679" transform="translate(-59.262 -182.847)"/>
    <path id="Path_72" data-name="Path 72" class="cls-1" d="M233.289,70.873l-2.151-2.151a1.521,1.521,0,0,0-2.151,2.151l2.151,2.151a1.521,1.521,0,1,0,2.151-2.151" transform="translate(-197.593 -59.031)"/>
    <path id="Path_73" data-name="Path 73" class="cls-1" d="M280.949,118.53l-2.151-2.151a1.521,1.521,0,0,0-2.151,2.151l2.151,2.151a1.521,1.521,0,0,0,2.151-2.151" transform="translate(-238.799 -100.234)"/>
    <path id="Path_74" data-name="Path 74" class="cls-1" d="M50.662,18.389,48.176,15.9A9.131,9.131,0,0,0,35.937,3.666L33.605,1.334a4.568,4.568,0,0,0-6.453,0L1.338,27.148a4.56,4.56,0,0,0,0,6.453l2.4,2.4A9.129,9.129,0,0,0,15.875,48.089L18.5,50.641a4.581,4.581,0,0,0,6.407-.046L48.6,26.9l2.058-2.058a4.561,4.561,0,0,0,0-6.454m-27.9,30.055a1.527,1.527,0,0,1-2.136.015L17.2,45.13l0,0a1.527,1.527,0,0,0-2.377.1A6.087,6.087,0,0,1,6.9,36.543a1.521,1.521,0,0,0-.207-1.893l-3.2-3.2a1.519,1.519,0,0,1,0-2.151L19.716,13.072,38.923,32.279ZM48.511,22.691l-.983.983L46.453,22.6A1.521,1.521,0,0,0,44.3,24.75l1.075,1.075-4.3,4.3L21.867,10.921l4.3-4.3.922.922a1.521,1.521,0,1,0,2.151-2.151l-.921-.921.981-.982a1.524,1.524,0,0,1,2.151,0l3.163,3.163a1.522,1.522,0,0,0,1.938.177,6.086,6.086,0,0,1,8.462,8.461,1.521,1.521,0,0,0,.178,1.938l3.317,3.316a1.52,1.52,0,0,1,0,2.151" transform="translate(0 0)"/>
  </g>
</svg>
