<svg xmlns="http://www.w3.org/2000/svg" xmlns:xlink="http://www.w3.org/1999/xlink" width="52" height="52" viewBox="0 0 52 52">
  <defs>
    <style>
      .cls-1 {
        fill: #fff;
      }

      .cls-2 {
        clip-path: url(#clip-path);
      }
    </style>
    <clipPath id="clip-path">
      <rect id="Rectangle_70" data-name="Rectangle 70" class="cls-1" width="52" height="52" transform="translate(-0.037 -0.037)"/>
    </clipPath>
  </defs>
  <g id="Group_49" data-name="Group 49" transform="translate(0.075 0.075)">
    <g id="Group_48" data-name="Group 48" class="cls-2" transform="translate(-0.038 -0.038)">
      <path id="Path_77" data-name="Path 77" class="cls-1" d="M51.367,24.736l-4.4-4.444,1.589-6.049a1.7,1.7,0,0,0-1.193-2.067l-6.033-1.648L39.681,4.5A1.7,1.7,0,0,0,37.615,3.3L31.566,4.891,27.122.491a1.7,1.7,0,0,0-2.387,0l-4.444,4.4L14.243,3.3A1.7,1.7,0,0,0,12.176,4.5l-1.648,6.033L4.5,12.177A1.7,1.7,0,0,0,3.3,14.243l1.589,6.049-4.4,4.444a1.7,1.7,0,0,0,0,2.387l4.4,4.444L3.3,37.615A1.7,1.7,0,0,0,4.5,39.681l6.033,1.648,1.649,6.033a1.7,1.7,0,0,0,2.066,1.193l6.049-1.589,4.444,4.4a1.7,1.7,0,0,0,2.387,0l4.444-4.4,6.049,1.589a1.7,1.7,0,0,0,2.067-1.193l1.648-6.033,6.033-1.648a1.7,1.7,0,0,0,1.193-2.067l-1.589-6.049,4.4-4.444a1.7,1.7,0,0,0,0-2.387m-7.491,5.132a1.7,1.7,0,0,0-.435,1.624l1.408,5.361L39.5,38.313A1.7,1.7,0,0,0,38.313,39.5l-1.461,5.346-5.361-1.408a1.694,1.694,0,0,0-1.624.435l-3.938,3.9-3.938-3.9a1.693,1.693,0,0,0-1.624-.435l-5.361,1.409L13.545,39.5a1.7,1.7,0,0,0-1.189-1.189L7.009,36.852l1.408-5.361a1.7,1.7,0,0,0-.435-1.624l-3.9-3.938,3.9-3.938a1.694,1.694,0,0,0,.435-1.624L7.009,15.005l5.346-1.461a1.7,1.7,0,0,0,1.189-1.189l1.461-5.347,5.361,1.409a1.7,1.7,0,0,0,1.624-.435l3.938-3.9,3.938,3.9a1.7,1.7,0,0,0,1.624.435l5.361-1.409,1.461,5.347A1.7,1.7,0,0,0,39.5,13.545l5.346,1.461-1.408,5.361a1.7,1.7,0,0,0,.435,1.624l3.9,3.938Z" transform="translate(0.034 0.034)"/>
      <path id="Path_78" data-name="Path 78" class="cls-1" d="M105.574,99.922a5.652,5.652,0,1,0,5.652,5.652,5.659,5.659,0,0,0-5.652-5.652m0,7.913a2.261,2.261,0,1,1,2.261-2.261,2.264,2.264,0,0,1-2.261,2.261" transform="translate(-86.394 -86.394)"/>
      <path id="Path_79" data-name="Path 79" class="cls-1" d="M206.023,200.371a5.652,5.652,0,1,0,5.652,5.652,5.659,5.659,0,0,0-5.652-5.652m0,7.913a2.261,2.261,0,1,1,2.26-2.261,2.263,2.263,0,0,1-2.26,2.261" transform="translate(-173.278 -173.278)"/>
      <path id="Path_80" data-name="Path 80" class="cls-1" d="M139.568,121.344a1.7,1.7,0,0,0-2.4,0L121.344,137.17a1.7,1.7,0,1,0,2.4,2.4l15.826-15.826a1.7,1.7,0,0,0,0-2.4" transform="translate(-104.494 -104.494)"/>
    </g>
  </g>
</svg>
